M48
; DRILL file {KiCad (5.99.0-1296-g952e7a5fb)} date 06/12/20 12:13:45
; FORMAT={-:-/ absolute / metric / decimal}
; #@! TF.CreationDate,2020-06-12T12:13:45+03:00
; #@! TF.GenerationSoftware,Kicad,Pcbnew,(5.99.0-1296-g952e7a5fb)
FMAT,2
METRIC
T1C0.400
T2C0.800
T3C0.900
T4C1.000
T5C1.100
T6C1.300
T7C3.200
%
G90
G05
T1
X91.649Y-69.601
X92.25Y-79.75
X92.524Y-81.274
X94.25Y-83.5
X100.55Y-76.4
X100.601Y-78.25
X103.0Y-86.0
X109.25Y-80.0
X110.25Y-69.25
X110.75Y-85.0
X113.5Y-93.25
X115.25Y-75.5
X124.25Y-86.75
X126.125Y-84.173
X128.404Y-91.393
X128.5Y-90.0
X129.0Y-77.75
X129.676Y-85.026
X132.25Y-68.5
X133.0Y-82.75
X137.25Y-78.5
X141.75Y-84.0
X147.75Y-80.5
X150.75Y-69.25
X151.0Y-80.5
X159.25Y-84.0
X163.25Y-80.5
X164.0Y-77.75
T2
X97.45Y-99.5
X97.45Y-104.5
X129.0Y-72.26
X129.0Y-87.5
X131.54Y-72.26
X131.54Y-87.5
X134.08Y-72.26
X134.08Y-87.5
X136.62Y-72.26
X136.62Y-87.5
X139.16Y-72.26
X139.16Y-87.5
X141.7Y-72.26
X141.7Y-87.5
X144.24Y-72.26
X144.24Y-87.5
X146.78Y-72.26
X146.78Y-87.5
X149.32Y-72.26
X149.32Y-87.5
X151.86Y-72.26
X151.86Y-87.5
X154.4Y-72.26
X154.4Y-87.5
X156.94Y-72.26
X156.94Y-87.5
X159.48Y-72.26
X159.48Y-87.5
X162.02Y-72.26
X162.02Y-87.5
X164.56Y-72.26
X164.56Y-87.5
T3
X84.75Y-105.0
X87.29Y-105.0
X91.5Y-105.0
X94.04Y-105.0
T4
X93.75Y-64.0
X96.29Y-64.0
X98.83Y-64.0
X101.37Y-64.0
X103.91Y-64.0
X106.45Y-64.0
X108.99Y-64.0
X111.53Y-64.0
X114.07Y-64.0
X116.61Y-64.0
X119.15Y-64.0
X121.69Y-64.0
X124.23Y-64.0
X126.77Y-64.0
X129.31Y-64.0
X131.85Y-64.0
X167.5Y-91.17
X167.5Y-93.71
X167.5Y-96.25
T5
X86.54Y-96.0
X94.16Y-96.0
X86.187Y-100.075
X93.807Y-100.075
X158.0Y-98.75
X158.0Y-105.25
X162.5Y-98.75
X162.5Y-105.25
T6
X142.0Y-102.75
X147.08Y-102.75
X152.16Y-102.75
X129.5Y-102.75
X134.58Y-102.75
X76.675Y-64.05
X76.675Y-69.13
X76.675Y-74.21
X76.675Y-79.29
X76.675Y-84.37
X76.675Y-89.45
X76.65Y-96.175
X76.65Y-101.255
T7
X168.0Y-105.75
X168.0Y-63.25
T0
M30
