%TF.GenerationSoftware,KiCad,Pcbnew,(5.99.0-1296-g952e7a5fb)*%
%TF.CreationDate,2020-06-12T12:12:59+03:00*%
%TF.ProjectId,TeemoWB,5465656d-6f57-4422-9e6b-696361645f70,1.0*%
%TF.SameCoordinates,Original*%
%TF.FileFunction,Soldermask,Top*%
%TF.FilePolarity,Negative*%
%FSLAX46Y46*%
G04 Gerber Fmt 4.6, Leading zero omitted, Abs format (unit mm)*
G04 Created by KiCad (PCBNEW (5.99.0-1296-g952e7a5fb)) date 2020-06-12 12:12:59*
%MOMM*%
%LPD*%
G01*
G04 APERTURE LIST*
%ADD10C,2.540000*%
%ADD11C,3.300000*%
%ADD12O,1.600000X2.300000*%
%ADD13O,1.800000X1.800000*%
%ADD14C,2.100000*%
%ADD15C,2.700000*%
%ADD16C,1.900000*%
%ADD17O,2.300000X2.300000*%
%ADD18O,1.700000X1.700000*%
G04 APERTURE END LIST*
D10*
%TO.C,FID3*%
X166500000Y-78000000D03*
%TD*%
D11*
%TO.C,REF\u002A\u002A*%
X168000000Y-105750000D03*
%TD*%
%TO.C,REF\u002A\u002A*%
X168000000Y-63250000D03*
%TD*%
D10*
%TO.C,FID2*%
X167250000Y-100250000D03*
%TD*%
%TO.C,FID1*%
X75000000Y-105750000D03*
%TD*%
D12*
%TO.C,D_LCD1*%
X131850000Y-64000000D03*
X129310000Y-64000000D03*
X126770000Y-64000000D03*
X124230000Y-64000000D03*
X121690000Y-64000000D03*
X119150000Y-64000000D03*
X116610000Y-64000000D03*
X114070000Y-64000000D03*
X111530000Y-64000000D03*
X108990000Y-64000000D03*
X106450000Y-64000000D03*
X103910000Y-64000000D03*
X101370000Y-64000000D03*
X98830000Y-64000000D03*
X96290000Y-64000000D03*
G36*
G01*
X92950000Y-65100000D02*
X92950000Y-62900000D01*
G75*
G02*
X93000000Y-62850000I50000J0D01*
G01*
X94500000Y-62850000D01*
G75*
G02*
X94550000Y-62900000I0J-50000D01*
G01*
X94550000Y-65100000D01*
G75*
G02*
X94500000Y-65150000I-50000J0D01*
G01*
X93000000Y-65150000D01*
G75*
G02*
X92950000Y-65100000I0J50000D01*
G01*
G37*
%TD*%
D13*
%TO.C,J3*%
X167500000Y-91170000D03*
X167500000Y-93710000D03*
G36*
G01*
X168400000Y-95400000D02*
X168400000Y-97100000D01*
G75*
G02*
X168350000Y-97150000I-50000J0D01*
G01*
X166650000Y-97150000D01*
G75*
G02*
X166600000Y-97100000I0J50000D01*
G01*
X166600000Y-95400000D01*
G75*
G02*
X166650000Y-95350000I50000J0D01*
G01*
X168350000Y-95350000D01*
G75*
G02*
X168400000Y-95400000I0J-50000D01*
G01*
G37*
%TD*%
%TO.C,U1*%
G36*
G01*
X114150000Y-77565000D02*
X114150000Y-76965000D01*
G75*
G02*
X114200000Y-76915000I50000J0D01*
G01*
X116200000Y-76915000D01*
G75*
G02*
X116250000Y-76965000I0J-50000D01*
G01*
X116250000Y-77565000D01*
G75*
G02*
X116200000Y-77615000I-50000J0D01*
G01*
X114200000Y-77615000D01*
G75*
G02*
X114150000Y-77565000I0J50000D01*
G01*
G37*
G36*
G01*
X114150000Y-78835000D02*
X114150000Y-78235000D01*
G75*
G02*
X114200000Y-78185000I50000J0D01*
G01*
X116200000Y-78185000D01*
G75*
G02*
X116250000Y-78235000I0J-50000D01*
G01*
X116250000Y-78835000D01*
G75*
G02*
X116200000Y-78885000I-50000J0D01*
G01*
X114200000Y-78885000D01*
G75*
G02*
X114150000Y-78835000I0J50000D01*
G01*
G37*
G36*
G01*
X114150000Y-80105000D02*
X114150000Y-79505000D01*
G75*
G02*
X114200000Y-79455000I50000J0D01*
G01*
X116200000Y-79455000D01*
G75*
G02*
X116250000Y-79505000I0J-50000D01*
G01*
X116250000Y-80105000D01*
G75*
G02*
X116200000Y-80155000I-50000J0D01*
G01*
X114200000Y-80155000D01*
G75*
G02*
X114150000Y-80105000I0J50000D01*
G01*
G37*
G36*
G01*
X114150000Y-81375000D02*
X114150000Y-80775000D01*
G75*
G02*
X114200000Y-80725000I50000J0D01*
G01*
X116200000Y-80725000D01*
G75*
G02*
X116250000Y-80775000I0J-50000D01*
G01*
X116250000Y-81375000D01*
G75*
G02*
X116200000Y-81425000I-50000J0D01*
G01*
X114200000Y-81425000D01*
G75*
G02*
X114150000Y-81375000I0J50000D01*
G01*
G37*
G36*
G01*
X114150000Y-82645000D02*
X114150000Y-82045000D01*
G75*
G02*
X114200000Y-81995000I50000J0D01*
G01*
X116200000Y-81995000D01*
G75*
G02*
X116250000Y-82045000I0J-50000D01*
G01*
X116250000Y-82645000D01*
G75*
G02*
X116200000Y-82695000I-50000J0D01*
G01*
X114200000Y-82695000D01*
G75*
G02*
X114150000Y-82645000I0J50000D01*
G01*
G37*
G36*
G01*
X114150000Y-83915000D02*
X114150000Y-83315000D01*
G75*
G02*
X114200000Y-83265000I50000J0D01*
G01*
X116200000Y-83265000D01*
G75*
G02*
X116250000Y-83315000I0J-50000D01*
G01*
X116250000Y-83915000D01*
G75*
G02*
X116200000Y-83965000I-50000J0D01*
G01*
X114200000Y-83965000D01*
G75*
G02*
X114150000Y-83915000I0J50000D01*
G01*
G37*
G36*
G01*
X114150000Y-85185000D02*
X114150000Y-84585000D01*
G75*
G02*
X114200000Y-84535000I50000J0D01*
G01*
X116200000Y-84535000D01*
G75*
G02*
X116250000Y-84585000I0J-50000D01*
G01*
X116250000Y-85185000D01*
G75*
G02*
X116200000Y-85235000I-50000J0D01*
G01*
X114200000Y-85235000D01*
G75*
G02*
X114150000Y-85185000I0J50000D01*
G01*
G37*
G36*
G01*
X114150000Y-86455000D02*
X114150000Y-85855000D01*
G75*
G02*
X114200000Y-85805000I50000J0D01*
G01*
X116200000Y-85805000D01*
G75*
G02*
X116250000Y-85855000I0J-50000D01*
G01*
X116250000Y-86455000D01*
G75*
G02*
X116200000Y-86505000I-50000J0D01*
G01*
X114200000Y-86505000D01*
G75*
G02*
X114150000Y-86455000I0J50000D01*
G01*
G37*
G36*
G01*
X114150000Y-87725000D02*
X114150000Y-87125000D01*
G75*
G02*
X114200000Y-87075000I50000J0D01*
G01*
X116200000Y-87075000D01*
G75*
G02*
X116250000Y-87125000I0J-50000D01*
G01*
X116250000Y-87725000D01*
G75*
G02*
X116200000Y-87775000I-50000J0D01*
G01*
X114200000Y-87775000D01*
G75*
G02*
X114150000Y-87725000I0J50000D01*
G01*
G37*
G36*
G01*
X114150000Y-88995000D02*
X114150000Y-88395000D01*
G75*
G02*
X114200000Y-88345000I50000J0D01*
G01*
X116200000Y-88345000D01*
G75*
G02*
X116250000Y-88395000I0J-50000D01*
G01*
X116250000Y-88995000D01*
G75*
G02*
X116200000Y-89045000I-50000J0D01*
G01*
X114200000Y-89045000D01*
G75*
G02*
X114150000Y-88995000I0J50000D01*
G01*
G37*
G36*
G01*
X114150000Y-90265000D02*
X114150000Y-89665000D01*
G75*
G02*
X114200000Y-89615000I50000J0D01*
G01*
X116200000Y-89615000D01*
G75*
G02*
X116250000Y-89665000I0J-50000D01*
G01*
X116250000Y-90265000D01*
G75*
G02*
X116200000Y-90315000I-50000J0D01*
G01*
X114200000Y-90315000D01*
G75*
G02*
X114150000Y-90265000I0J50000D01*
G01*
G37*
G36*
G01*
X114150000Y-91535000D02*
X114150000Y-90935000D01*
G75*
G02*
X114200000Y-90885000I50000J0D01*
G01*
X116200000Y-90885000D01*
G75*
G02*
X116250000Y-90935000I0J-50000D01*
G01*
X116250000Y-91535000D01*
G75*
G02*
X116200000Y-91585000I-50000J0D01*
G01*
X114200000Y-91585000D01*
G75*
G02*
X114150000Y-91535000I0J50000D01*
G01*
G37*
G36*
G01*
X104750000Y-91535000D02*
X104750000Y-90935000D01*
G75*
G02*
X104800000Y-90885000I50000J0D01*
G01*
X106800000Y-90885000D01*
G75*
G02*
X106850000Y-90935000I0J-50000D01*
G01*
X106850000Y-91535000D01*
G75*
G02*
X106800000Y-91585000I-50000J0D01*
G01*
X104800000Y-91585000D01*
G75*
G02*
X104750000Y-91535000I0J50000D01*
G01*
G37*
G36*
G01*
X104750000Y-90265000D02*
X104750000Y-89665000D01*
G75*
G02*
X104800000Y-89615000I50000J0D01*
G01*
X106800000Y-89615000D01*
G75*
G02*
X106850000Y-89665000I0J-50000D01*
G01*
X106850000Y-90265000D01*
G75*
G02*
X106800000Y-90315000I-50000J0D01*
G01*
X104800000Y-90315000D01*
G75*
G02*
X104750000Y-90265000I0J50000D01*
G01*
G37*
G36*
G01*
X104750000Y-88995000D02*
X104750000Y-88395000D01*
G75*
G02*
X104800000Y-88345000I50000J0D01*
G01*
X106800000Y-88345000D01*
G75*
G02*
X106850000Y-88395000I0J-50000D01*
G01*
X106850000Y-88995000D01*
G75*
G02*
X106800000Y-89045000I-50000J0D01*
G01*
X104800000Y-89045000D01*
G75*
G02*
X104750000Y-88995000I0J50000D01*
G01*
G37*
G36*
G01*
X104750000Y-87725000D02*
X104750000Y-87125000D01*
G75*
G02*
X104800000Y-87075000I50000J0D01*
G01*
X106800000Y-87075000D01*
G75*
G02*
X106850000Y-87125000I0J-50000D01*
G01*
X106850000Y-87725000D01*
G75*
G02*
X106800000Y-87775000I-50000J0D01*
G01*
X104800000Y-87775000D01*
G75*
G02*
X104750000Y-87725000I0J50000D01*
G01*
G37*
G36*
G01*
X104750000Y-86455000D02*
X104750000Y-85855000D01*
G75*
G02*
X104800000Y-85805000I50000J0D01*
G01*
X106800000Y-85805000D01*
G75*
G02*
X106850000Y-85855000I0J-50000D01*
G01*
X106850000Y-86455000D01*
G75*
G02*
X106800000Y-86505000I-50000J0D01*
G01*
X104800000Y-86505000D01*
G75*
G02*
X104750000Y-86455000I0J50000D01*
G01*
G37*
G36*
G01*
X104750000Y-85185000D02*
X104750000Y-84585000D01*
G75*
G02*
X104800000Y-84535000I50000J0D01*
G01*
X106800000Y-84535000D01*
G75*
G02*
X106850000Y-84585000I0J-50000D01*
G01*
X106850000Y-85185000D01*
G75*
G02*
X106800000Y-85235000I-50000J0D01*
G01*
X104800000Y-85235000D01*
G75*
G02*
X104750000Y-85185000I0J50000D01*
G01*
G37*
G36*
G01*
X104750000Y-83915000D02*
X104750000Y-83315000D01*
G75*
G02*
X104800000Y-83265000I50000J0D01*
G01*
X106800000Y-83265000D01*
G75*
G02*
X106850000Y-83315000I0J-50000D01*
G01*
X106850000Y-83915000D01*
G75*
G02*
X106800000Y-83965000I-50000J0D01*
G01*
X104800000Y-83965000D01*
G75*
G02*
X104750000Y-83915000I0J50000D01*
G01*
G37*
G36*
G01*
X104750000Y-82645000D02*
X104750000Y-82045000D01*
G75*
G02*
X104800000Y-81995000I50000J0D01*
G01*
X106800000Y-81995000D01*
G75*
G02*
X106850000Y-82045000I0J-50000D01*
G01*
X106850000Y-82645000D01*
G75*
G02*
X106800000Y-82695000I-50000J0D01*
G01*
X104800000Y-82695000D01*
G75*
G02*
X104750000Y-82645000I0J50000D01*
G01*
G37*
G36*
G01*
X104750000Y-81375000D02*
X104750000Y-80775000D01*
G75*
G02*
X104800000Y-80725000I50000J0D01*
G01*
X106800000Y-80725000D01*
G75*
G02*
X106850000Y-80775000I0J-50000D01*
G01*
X106850000Y-81375000D01*
G75*
G02*
X106800000Y-81425000I-50000J0D01*
G01*
X104800000Y-81425000D01*
G75*
G02*
X104750000Y-81375000I0J50000D01*
G01*
G37*
G36*
G01*
X104750000Y-80105000D02*
X104750000Y-79505000D01*
G75*
G02*
X104800000Y-79455000I50000J0D01*
G01*
X106800000Y-79455000D01*
G75*
G02*
X106850000Y-79505000I0J-50000D01*
G01*
X106850000Y-80105000D01*
G75*
G02*
X106800000Y-80155000I-50000J0D01*
G01*
X104800000Y-80155000D01*
G75*
G02*
X104750000Y-80105000I0J50000D01*
G01*
G37*
G36*
G01*
X104750000Y-78835000D02*
X104750000Y-78235000D01*
G75*
G02*
X104800000Y-78185000I50000J0D01*
G01*
X106800000Y-78185000D01*
G75*
G02*
X106850000Y-78235000I0J-50000D01*
G01*
X106850000Y-78835000D01*
G75*
G02*
X106800000Y-78885000I-50000J0D01*
G01*
X104800000Y-78885000D01*
G75*
G02*
X104750000Y-78835000I0J50000D01*
G01*
G37*
G36*
G01*
X104750000Y-77565000D02*
X104750000Y-76965000D01*
G75*
G02*
X104800000Y-76915000I50000J0D01*
G01*
X106800000Y-76915000D01*
G75*
G02*
X106850000Y-76965000I0J-50000D01*
G01*
X106850000Y-77565000D01*
G75*
G02*
X106800000Y-77615000I-50000J0D01*
G01*
X104800000Y-77615000D01*
G75*
G02*
X104750000Y-77565000I0J50000D01*
G01*
G37*
%TD*%
D14*
%TO.C,SW1*%
X158000000Y-98750000D03*
X162500000Y-98750000D03*
X158000000Y-105250000D03*
X162500000Y-105250000D03*
%TD*%
%TO.C,R18*%
G36*
G01*
X145345000Y-68225000D02*
X146655000Y-68225000D01*
G75*
G02*
X146925000Y-68495000I0J-270000D01*
G01*
X146925000Y-69305000D01*
G75*
G02*
X146655000Y-69575000I-270000J0D01*
G01*
X145345000Y-69575000D01*
G75*
G02*
X145075000Y-69305000I0J270000D01*
G01*
X145075000Y-68495000D01*
G75*
G02*
X145345000Y-68225000I270000J0D01*
G01*
G37*
G36*
G01*
X145345000Y-65425000D02*
X146655000Y-65425000D01*
G75*
G02*
X146925000Y-65695000I0J-270000D01*
G01*
X146925000Y-66505000D01*
G75*
G02*
X146655000Y-66775000I-270000J0D01*
G01*
X145345000Y-66775000D01*
G75*
G02*
X145075000Y-66505000I0J270000D01*
G01*
X145075000Y-65695000D01*
G75*
G02*
X145345000Y-65425000I270000J0D01*
G01*
G37*
%TD*%
%TO.C,R17*%
G36*
G01*
X135626613Y-93491177D02*
X136936613Y-93491177D01*
G75*
G02*
X137206613Y-93761177I0J-270000D01*
G01*
X137206613Y-94571177D01*
G75*
G02*
X136936613Y-94841177I-270000J0D01*
G01*
X135626613Y-94841177D01*
G75*
G02*
X135356613Y-94571177I0J270000D01*
G01*
X135356613Y-93761177D01*
G75*
G02*
X135626613Y-93491177I270000J0D01*
G01*
G37*
G36*
G01*
X135626613Y-90691177D02*
X136936613Y-90691177D01*
G75*
G02*
X137206613Y-90961177I0J-270000D01*
G01*
X137206613Y-91771177D01*
G75*
G02*
X136936613Y-92041177I-270000J0D01*
G01*
X135626613Y-92041177D01*
G75*
G02*
X135356613Y-91771177I0J270000D01*
G01*
X135356613Y-90961177D01*
G75*
G02*
X135626613Y-90691177I270000J0D01*
G01*
G37*
%TD*%
%TO.C,R16*%
G36*
G01*
X139877008Y-93483138D02*
X141187008Y-93483138D01*
G75*
G02*
X141457008Y-93753138I0J-270000D01*
G01*
X141457008Y-94563138D01*
G75*
G02*
X141187008Y-94833138I-270000J0D01*
G01*
X139877008Y-94833138D01*
G75*
G02*
X139607008Y-94563138I0J270000D01*
G01*
X139607008Y-93753138D01*
G75*
G02*
X139877008Y-93483138I270000J0D01*
G01*
G37*
G36*
G01*
X139877008Y-90683138D02*
X141187008Y-90683138D01*
G75*
G02*
X141457008Y-90953138I0J-270000D01*
G01*
X141457008Y-91763138D01*
G75*
G02*
X141187008Y-92033138I-270000J0D01*
G01*
X139877008Y-92033138D01*
G75*
G02*
X139607008Y-91763138I0J270000D01*
G01*
X139607008Y-90953138D01*
G75*
G02*
X139877008Y-90683138I270000J0D01*
G01*
G37*
%TD*%
%TO.C,R15*%
G36*
G01*
X101675914Y-70225000D02*
X102985914Y-70225000D01*
G75*
G02*
X103255914Y-70495000I0J-270000D01*
G01*
X103255914Y-71305000D01*
G75*
G02*
X102985914Y-71575000I-270000J0D01*
G01*
X101675914Y-71575000D01*
G75*
G02*
X101405914Y-71305000I0J270000D01*
G01*
X101405914Y-70495000D01*
G75*
G02*
X101675914Y-70225000I270000J0D01*
G01*
G37*
G36*
G01*
X101675914Y-67425000D02*
X102985914Y-67425000D01*
G75*
G02*
X103255914Y-67695000I0J-270000D01*
G01*
X103255914Y-68505000D01*
G75*
G02*
X102985914Y-68775000I-270000J0D01*
G01*
X101675914Y-68775000D01*
G75*
G02*
X101405914Y-68505000I0J270000D01*
G01*
X101405914Y-67695000D01*
G75*
G02*
X101675914Y-67425000I270000J0D01*
G01*
G37*
%TD*%
%TO.C,R14*%
G36*
G01*
X107905000Y-68775000D02*
X106595000Y-68775000D01*
G75*
G02*
X106325000Y-68505000I0J270000D01*
G01*
X106325000Y-67695000D01*
G75*
G02*
X106595000Y-67425000I270000J0D01*
G01*
X107905000Y-67425000D01*
G75*
G02*
X108175000Y-67695000I0J-270000D01*
G01*
X108175000Y-68505000D01*
G75*
G02*
X107905000Y-68775000I-270000J0D01*
G01*
G37*
G36*
G01*
X107905000Y-71575000D02*
X106595000Y-71575000D01*
G75*
G02*
X106325000Y-71305000I0J270000D01*
G01*
X106325000Y-70495000D01*
G75*
G02*
X106595000Y-70225000I270000J0D01*
G01*
X107905000Y-70225000D01*
G75*
G02*
X108175000Y-70495000I0J-270000D01*
G01*
X108175000Y-71305000D01*
G75*
G02*
X107905000Y-71575000I-270000J0D01*
G01*
G37*
%TD*%
%TO.C,R13*%
G36*
G01*
X120975000Y-69905000D02*
X120975000Y-68595000D01*
G75*
G02*
X121245000Y-68325000I270000J0D01*
G01*
X122055000Y-68325000D01*
G75*
G02*
X122325000Y-68595000I0J-270000D01*
G01*
X122325000Y-69905000D01*
G75*
G02*
X122055000Y-70175000I-270000J0D01*
G01*
X121245000Y-70175000D01*
G75*
G02*
X120975000Y-69905000I0J270000D01*
G01*
G37*
G36*
G01*
X118175000Y-69905000D02*
X118175000Y-68595000D01*
G75*
G02*
X118445000Y-68325000I270000J0D01*
G01*
X119255000Y-68325000D01*
G75*
G02*
X119525000Y-68595000I0J-270000D01*
G01*
X119525000Y-69905000D01*
G75*
G02*
X119255000Y-70175000I-270000J0D01*
G01*
X118445000Y-70175000D01*
G75*
G02*
X118175000Y-69905000I0J270000D01*
G01*
G37*
%TD*%
%TO.C,R12*%
G36*
G01*
X153029200Y-93486365D02*
X154339200Y-93486365D01*
G75*
G02*
X154609200Y-93756365I0J-270000D01*
G01*
X154609200Y-94566365D01*
G75*
G02*
X154339200Y-94836365I-270000J0D01*
G01*
X153029200Y-94836365D01*
G75*
G02*
X152759200Y-94566365I0J270000D01*
G01*
X152759200Y-93756365D01*
G75*
G02*
X153029200Y-93486365I270000J0D01*
G01*
G37*
G36*
G01*
X153029200Y-90686365D02*
X154339200Y-90686365D01*
G75*
G02*
X154609200Y-90956365I0J-270000D01*
G01*
X154609200Y-91766365D01*
G75*
G02*
X154339200Y-92036365I-270000J0D01*
G01*
X153029200Y-92036365D01*
G75*
G02*
X152759200Y-91766365I0J270000D01*
G01*
X152759200Y-90956365D01*
G75*
G02*
X153029200Y-90686365I270000J0D01*
G01*
G37*
%TD*%
%TO.C,R11*%
G36*
G01*
X131653368Y-93486928D02*
X132963368Y-93486928D01*
G75*
G02*
X133233368Y-93756928I0J-270000D01*
G01*
X133233368Y-94566928D01*
G75*
G02*
X132963368Y-94836928I-270000J0D01*
G01*
X131653368Y-94836928D01*
G75*
G02*
X131383368Y-94566928I0J270000D01*
G01*
X131383368Y-93756928D01*
G75*
G02*
X131653368Y-93486928I270000J0D01*
G01*
G37*
G36*
G01*
X131653368Y-90686928D02*
X132963368Y-90686928D01*
G75*
G02*
X133233368Y-90956928I0J-270000D01*
G01*
X133233368Y-91766928D01*
G75*
G02*
X132963368Y-92036928I-270000J0D01*
G01*
X131653368Y-92036928D01*
G75*
G02*
X131383368Y-91766928I0J270000D01*
G01*
X131383368Y-90956928D01*
G75*
G02*
X131653368Y-90686928I270000J0D01*
G01*
G37*
%TD*%
%TO.C,R10*%
G36*
G01*
X97725000Y-71905000D02*
X97725000Y-70595000D01*
G75*
G02*
X97995000Y-70325000I270000J0D01*
G01*
X98805000Y-70325000D01*
G75*
G02*
X99075000Y-70595000I0J-270000D01*
G01*
X99075000Y-71905000D01*
G75*
G02*
X98805000Y-72175000I-270000J0D01*
G01*
X97995000Y-72175000D01*
G75*
G02*
X97725000Y-71905000I0J270000D01*
G01*
G37*
G36*
G01*
X94925000Y-71905000D02*
X94925000Y-70595000D01*
G75*
G02*
X95195000Y-70325000I270000J0D01*
G01*
X96005000Y-70325000D01*
G75*
G02*
X96275000Y-70595000I0J-270000D01*
G01*
X96275000Y-71905000D01*
G75*
G02*
X96005000Y-72175000I-270000J0D01*
G01*
X95195000Y-72175000D01*
G75*
G02*
X94925000Y-71905000I0J270000D01*
G01*
G37*
%TD*%
%TO.C,R9*%
G36*
G01*
X96290068Y-81144354D02*
X96290068Y-82454354D01*
G75*
G02*
X96020068Y-82724354I-270000J0D01*
G01*
X95210068Y-82724354D01*
G75*
G02*
X94940068Y-82454354I0J270000D01*
G01*
X94940068Y-81144354D01*
G75*
G02*
X95210068Y-80874354I270000J0D01*
G01*
X96020068Y-80874354D01*
G75*
G02*
X96290068Y-81144354I0J-270000D01*
G01*
G37*
G36*
G01*
X99090068Y-81144354D02*
X99090068Y-82454354D01*
G75*
G02*
X98820068Y-82724354I-270000J0D01*
G01*
X98010068Y-82724354D01*
G75*
G02*
X97740068Y-82454354I0J270000D01*
G01*
X97740068Y-81144354D01*
G75*
G02*
X98010068Y-80874354I270000J0D01*
G01*
X98820068Y-80874354D01*
G75*
G02*
X99090068Y-81144354I0J-270000D01*
G01*
G37*
%TD*%
%TO.C,R8*%
G36*
G01*
X96326870Y-84060751D02*
X96326870Y-85370751D01*
G75*
G02*
X96056870Y-85640751I-270000J0D01*
G01*
X95246870Y-85640751D01*
G75*
G02*
X94976870Y-85370751I0J270000D01*
G01*
X94976870Y-84060751D01*
G75*
G02*
X95246870Y-83790751I270000J0D01*
G01*
X96056870Y-83790751D01*
G75*
G02*
X96326870Y-84060751I0J-270000D01*
G01*
G37*
G36*
G01*
X99126870Y-84060751D02*
X99126870Y-85370751D01*
G75*
G02*
X98856870Y-85640751I-270000J0D01*
G01*
X98046870Y-85640751D01*
G75*
G02*
X97776870Y-85370751I0J270000D01*
G01*
X97776870Y-84060751D01*
G75*
G02*
X98046870Y-83790751I270000J0D01*
G01*
X98856870Y-83790751D01*
G75*
G02*
X99126870Y-84060751I0J-270000D01*
G01*
G37*
%TD*%
%TO.C,R7*%
G36*
G01*
X121001691Y-78271380D02*
X121001691Y-76961380D01*
G75*
G02*
X121271691Y-76691380I270000J0D01*
G01*
X122081691Y-76691380D01*
G75*
G02*
X122351691Y-76961380I0J-270000D01*
G01*
X122351691Y-78271380D01*
G75*
G02*
X122081691Y-78541380I-270000J0D01*
G01*
X121271691Y-78541380D01*
G75*
G02*
X121001691Y-78271380I0J270000D01*
G01*
G37*
G36*
G01*
X118201691Y-78271380D02*
X118201691Y-76961380D01*
G75*
G02*
X118471691Y-76691380I270000J0D01*
G01*
X119281691Y-76691380D01*
G75*
G02*
X119551691Y-76961380I0J-270000D01*
G01*
X119551691Y-78271380D01*
G75*
G02*
X119281691Y-78541380I-270000J0D01*
G01*
X118471691Y-78541380D01*
G75*
G02*
X118201691Y-78271380I0J270000D01*
G01*
G37*
%TD*%
%TO.C,R6*%
G36*
G01*
X97725000Y-79407972D02*
X97725000Y-78097972D01*
G75*
G02*
X97995000Y-77827972I270000J0D01*
G01*
X98805000Y-77827972D01*
G75*
G02*
X99075000Y-78097972I0J-270000D01*
G01*
X99075000Y-79407972D01*
G75*
G02*
X98805000Y-79677972I-270000J0D01*
G01*
X97995000Y-79677972D01*
G75*
G02*
X97725000Y-79407972I0J270000D01*
G01*
G37*
G36*
G01*
X94925000Y-79407972D02*
X94925000Y-78097972D01*
G75*
G02*
X95195000Y-77827972I270000J0D01*
G01*
X96005000Y-77827972D01*
G75*
G02*
X96275000Y-78097972I0J-270000D01*
G01*
X96275000Y-79407972D01*
G75*
G02*
X96005000Y-79677972I-270000J0D01*
G01*
X95195000Y-79677972D01*
G75*
G02*
X94925000Y-79407972I0J270000D01*
G01*
G37*
%TD*%
%TO.C,R5*%
G36*
G01*
X97614400Y-90854440D02*
X97614400Y-89544440D01*
G75*
G02*
X97884400Y-89274440I270000J0D01*
G01*
X98694400Y-89274440D01*
G75*
G02*
X98964400Y-89544440I0J-270000D01*
G01*
X98964400Y-90854440D01*
G75*
G02*
X98694400Y-91124440I-270000J0D01*
G01*
X97884400Y-91124440D01*
G75*
G02*
X97614400Y-90854440I0J270000D01*
G01*
G37*
G36*
G01*
X94814400Y-90854440D02*
X94814400Y-89544440D01*
G75*
G02*
X95084400Y-89274440I270000J0D01*
G01*
X95894400Y-89274440D01*
G75*
G02*
X96164400Y-89544440I0J-270000D01*
G01*
X96164400Y-90854440D01*
G75*
G02*
X95894400Y-91124440I-270000J0D01*
G01*
X95084400Y-91124440D01*
G75*
G02*
X94814400Y-90854440I0J270000D01*
G01*
G37*
%TD*%
%TO.C,R4*%
G36*
G01*
X120975000Y-82405000D02*
X120975000Y-81095000D01*
G75*
G02*
X121245000Y-80825000I270000J0D01*
G01*
X122055000Y-80825000D01*
G75*
G02*
X122325000Y-81095000I0J-270000D01*
G01*
X122325000Y-82405000D01*
G75*
G02*
X122055000Y-82675000I-270000J0D01*
G01*
X121245000Y-82675000D01*
G75*
G02*
X120975000Y-82405000I0J270000D01*
G01*
G37*
G36*
G01*
X118175000Y-82405000D02*
X118175000Y-81095000D01*
G75*
G02*
X118445000Y-80825000I270000J0D01*
G01*
X119255000Y-80825000D01*
G75*
G02*
X119525000Y-81095000I0J-270000D01*
G01*
X119525000Y-82405000D01*
G75*
G02*
X119255000Y-82675000I-270000J0D01*
G01*
X118445000Y-82675000D01*
G75*
G02*
X118175000Y-82405000I0J270000D01*
G01*
G37*
%TD*%
%TO.C,R3*%
G36*
G01*
X94734242Y-88197399D02*
X94734242Y-86887399D01*
G75*
G02*
X95004242Y-86617399I270000J0D01*
G01*
X95814242Y-86617399D01*
G75*
G02*
X96084242Y-86887399I0J-270000D01*
G01*
X96084242Y-88197399D01*
G75*
G02*
X95814242Y-88467399I-270000J0D01*
G01*
X95004242Y-88467399D01*
G75*
G02*
X94734242Y-88197399I0J270000D01*
G01*
G37*
G36*
G01*
X91934242Y-88197399D02*
X91934242Y-86887399D01*
G75*
G02*
X92204242Y-86617399I270000J0D01*
G01*
X93014242Y-86617399D01*
G75*
G02*
X93284242Y-86887399I0J-270000D01*
G01*
X93284242Y-88197399D01*
G75*
G02*
X93014242Y-88467399I-270000J0D01*
G01*
X92204242Y-88467399D01*
G75*
G02*
X91934242Y-88197399I0J270000D01*
G01*
G37*
%TD*%
%TO.C,R2*%
G36*
G01*
X96275000Y-75095001D02*
X96275000Y-76405001D01*
G75*
G02*
X96005000Y-76675001I-270000J0D01*
G01*
X95195000Y-76675001D01*
G75*
G02*
X94925000Y-76405001I0J270000D01*
G01*
X94925000Y-75095001D01*
G75*
G02*
X95195000Y-74825001I270000J0D01*
G01*
X96005000Y-74825001D01*
G75*
G02*
X96275000Y-75095001I0J-270000D01*
G01*
G37*
G36*
G01*
X99075000Y-75095001D02*
X99075000Y-76405001D01*
G75*
G02*
X98805000Y-76675001I-270000J0D01*
G01*
X97995000Y-76675001D01*
G75*
G02*
X97725000Y-76405001I0J270000D01*
G01*
X97725000Y-75095001D01*
G75*
G02*
X97995000Y-74825001I270000J0D01*
G01*
X98805000Y-74825001D01*
G75*
G02*
X99075000Y-75095001I0J-270000D01*
G01*
G37*
%TD*%
%TO.C,R1*%
G36*
G01*
X100740894Y-88189860D02*
X100740894Y-86879860D01*
G75*
G02*
X101010894Y-86609860I270000J0D01*
G01*
X101820894Y-86609860D01*
G75*
G02*
X102090894Y-86879860I0J-270000D01*
G01*
X102090894Y-88189860D01*
G75*
G02*
X101820894Y-88459860I-270000J0D01*
G01*
X101010894Y-88459860D01*
G75*
G02*
X100740894Y-88189860I0J270000D01*
G01*
G37*
G36*
G01*
X97940894Y-88189860D02*
X97940894Y-86879860D01*
G75*
G02*
X98210894Y-86609860I270000J0D01*
G01*
X99020894Y-86609860D01*
G75*
G02*
X99290894Y-86879860I0J-270000D01*
G01*
X99290894Y-88189860D01*
G75*
G02*
X99020894Y-88459860I-270000J0D01*
G01*
X98210894Y-88459860D01*
G75*
G02*
X97940894Y-88189860I0J270000D01*
G01*
G37*
%TD*%
%TO.C,Q1*%
G36*
G01*
X86395000Y-72125000D02*
X85795000Y-72125000D01*
G75*
G02*
X85745000Y-72075000I0J50000D01*
G01*
X85745000Y-70525000D01*
G75*
G02*
X85795000Y-70475000I50000J0D01*
G01*
X86395000Y-70475000D01*
G75*
G02*
X86445000Y-70525000I0J-50000D01*
G01*
X86445000Y-72075000D01*
G75*
G02*
X86395000Y-72125000I-50000J0D01*
G01*
G37*
G36*
G01*
X87665000Y-72125000D02*
X87065000Y-72125000D01*
G75*
G02*
X87015000Y-72075000I0J50000D01*
G01*
X87015000Y-70525000D01*
G75*
G02*
X87065000Y-70475000I50000J0D01*
G01*
X87665000Y-70475000D01*
G75*
G02*
X87715000Y-70525000I0J-50000D01*
G01*
X87715000Y-72075000D01*
G75*
G02*
X87665000Y-72125000I-50000J0D01*
G01*
G37*
G36*
G01*
X88935000Y-72125000D02*
X88335000Y-72125000D01*
G75*
G02*
X88285000Y-72075000I0J50000D01*
G01*
X88285000Y-70525000D01*
G75*
G02*
X88335000Y-70475000I50000J0D01*
G01*
X88935000Y-70475000D01*
G75*
G02*
X88985000Y-70525000I0J-50000D01*
G01*
X88985000Y-72075000D01*
G75*
G02*
X88935000Y-72125000I-50000J0D01*
G01*
G37*
G36*
G01*
X90205000Y-72125000D02*
X89605000Y-72125000D01*
G75*
G02*
X89555000Y-72075000I0J50000D01*
G01*
X89555000Y-70525000D01*
G75*
G02*
X89605000Y-70475000I50000J0D01*
G01*
X90205000Y-70475000D01*
G75*
G02*
X90255000Y-70525000I0J-50000D01*
G01*
X90255000Y-72075000D01*
G75*
G02*
X90205000Y-72125000I-50000J0D01*
G01*
G37*
G36*
G01*
X90205000Y-77525000D02*
X89605000Y-77525000D01*
G75*
G02*
X89555000Y-77475000I0J50000D01*
G01*
X89555000Y-75925000D01*
G75*
G02*
X89605000Y-75875000I50000J0D01*
G01*
X90205000Y-75875000D01*
G75*
G02*
X90255000Y-75925000I0J-50000D01*
G01*
X90255000Y-77475000D01*
G75*
G02*
X90205000Y-77525000I-50000J0D01*
G01*
G37*
G36*
G01*
X88935000Y-77525000D02*
X88335000Y-77525000D01*
G75*
G02*
X88285000Y-77475000I0J50000D01*
G01*
X88285000Y-75925000D01*
G75*
G02*
X88335000Y-75875000I50000J0D01*
G01*
X88935000Y-75875000D01*
G75*
G02*
X88985000Y-75925000I0J-50000D01*
G01*
X88985000Y-77475000D01*
G75*
G02*
X88935000Y-77525000I-50000J0D01*
G01*
G37*
G36*
G01*
X87665000Y-77525000D02*
X87065000Y-77525000D01*
G75*
G02*
X87015000Y-77475000I0J50000D01*
G01*
X87015000Y-75925000D01*
G75*
G02*
X87065000Y-75875000I50000J0D01*
G01*
X87665000Y-75875000D01*
G75*
G02*
X87715000Y-75925000I0J-50000D01*
G01*
X87715000Y-77475000D01*
G75*
G02*
X87665000Y-77525000I-50000J0D01*
G01*
G37*
G36*
G01*
X86395000Y-77525000D02*
X85795000Y-77525000D01*
G75*
G02*
X85745000Y-77475000I0J50000D01*
G01*
X85745000Y-75925000D01*
G75*
G02*
X85795000Y-75875000I50000J0D01*
G01*
X86395000Y-75875000D01*
G75*
G02*
X86445000Y-75925000I0J-50000D01*
G01*
X86445000Y-77475000D01*
G75*
G02*
X86395000Y-77525000I-50000J0D01*
G01*
G37*
%TD*%
D15*
%TO.C,J5*%
X152160000Y-102750000D03*
X147080000Y-102750000D03*
G36*
G01*
X140650000Y-104050000D02*
X140650000Y-101450000D01*
G75*
G02*
X140700000Y-101400000I50000J0D01*
G01*
X143300000Y-101400000D01*
G75*
G02*
X143350000Y-101450000I0J-50000D01*
G01*
X143350000Y-104050000D01*
G75*
G02*
X143300000Y-104100000I-50000J0D01*
G01*
X140700000Y-104100000D01*
G75*
G02*
X140650000Y-104050000I0J50000D01*
G01*
G37*
%TD*%
%TO.C,J4*%
X134580000Y-102750000D03*
G36*
G01*
X128150000Y-104050000D02*
X128150000Y-101450000D01*
G75*
G02*
X128200000Y-101400000I50000J0D01*
G01*
X130800000Y-101400000D01*
G75*
G02*
X130850000Y-101450000I0J-50000D01*
G01*
X130850000Y-104050000D01*
G75*
G02*
X130800000Y-104100000I-50000J0D01*
G01*
X128200000Y-104100000D01*
G75*
G02*
X128150000Y-104050000I0J50000D01*
G01*
G37*
%TD*%
%TO.C,J2*%
X76675000Y-89450000D03*
X76675000Y-84370000D03*
X76675000Y-79290000D03*
X76675000Y-74210000D03*
X76675000Y-69130000D03*
G36*
G01*
X75375000Y-62700000D02*
X77975000Y-62700000D01*
G75*
G02*
X78025000Y-62750000I0J-50000D01*
G01*
X78025000Y-65350000D01*
G75*
G02*
X77975000Y-65400000I-50000J0D01*
G01*
X75375000Y-65400000D01*
G75*
G02*
X75325000Y-65350000I0J50000D01*
G01*
X75325000Y-62750000D01*
G75*
G02*
X75375000Y-62700000I50000J0D01*
G01*
G37*
%TD*%
%TO.C,J1*%
X76650000Y-101255000D03*
G36*
G01*
X75350000Y-94825000D02*
X77950000Y-94825000D01*
G75*
G02*
X78000000Y-94875000I0J-50000D01*
G01*
X78000000Y-97475000D01*
G75*
G02*
X77950000Y-97525000I-50000J0D01*
G01*
X75350000Y-97525000D01*
G75*
G02*
X75300000Y-97475000I0J50000D01*
G01*
X75300000Y-94875000D01*
G75*
G02*
X75350000Y-94825000I50000J0D01*
G01*
G37*
%TD*%
D16*
%TO.C,D4*%
X87290000Y-105000000D03*
G36*
G01*
X83800000Y-105900000D02*
X83800000Y-104100000D01*
G75*
G02*
X83850000Y-104050000I50000J0D01*
G01*
X85650000Y-104050000D01*
G75*
G02*
X85700000Y-104100000I0J-50000D01*
G01*
X85700000Y-105900000D01*
G75*
G02*
X85650000Y-105950000I-50000J0D01*
G01*
X83850000Y-105950000D01*
G75*
G02*
X83800000Y-105900000I0J50000D01*
G01*
G37*
%TD*%
%TO.C,D3*%
X94040000Y-105000000D03*
G36*
G01*
X90550000Y-105900000D02*
X90550000Y-104100000D01*
G75*
G02*
X90600000Y-104050000I50000J0D01*
G01*
X92400000Y-104050000D01*
G75*
G02*
X92450000Y-104100000I0J-50000D01*
G01*
X92450000Y-105900000D01*
G75*
G02*
X92400000Y-105950000I-50000J0D01*
G01*
X90600000Y-105950000D01*
G75*
G02*
X90550000Y-105900000I0J50000D01*
G01*
G37*
%TD*%
D17*
%TO.C,D2*%
X94160047Y-96000000D03*
G36*
G01*
X85390047Y-97100000D02*
X85390047Y-94900000D01*
G75*
G02*
X85440047Y-94850000I50000J0D01*
G01*
X87640047Y-94850000D01*
G75*
G02*
X87690047Y-94900000I0J-50000D01*
G01*
X87690047Y-97100000D01*
G75*
G02*
X87640047Y-97150000I-50000J0D01*
G01*
X85440047Y-97150000D01*
G75*
G02*
X85390047Y-97100000I0J50000D01*
G01*
G37*
%TD*%
%TO.C,D1*%
X86187349Y-100074710D03*
G36*
G01*
X94957349Y-98974710D02*
X94957349Y-101174710D01*
G75*
G02*
X94907349Y-101224710I-50000J0D01*
G01*
X92707349Y-101224710D01*
G75*
G02*
X92657349Y-101174710I0J50000D01*
G01*
X92657349Y-98974710D01*
G75*
G02*
X92707349Y-98924710I50000J0D01*
G01*
X94907349Y-98924710D01*
G75*
G02*
X94957349Y-98974710I0J-50000D01*
G01*
G37*
%TD*%
%TO.C,C9*%
G36*
G01*
X136842543Y-68225000D02*
X138157457Y-68225000D01*
G75*
G02*
X138425000Y-68492543I0J-267543D01*
G01*
X138425000Y-69482457D01*
G75*
G02*
X138157457Y-69750000I-267543J0D01*
G01*
X136842543Y-69750000D01*
G75*
G02*
X136575000Y-69482457I0J267543D01*
G01*
X136575000Y-68492543D01*
G75*
G02*
X136842543Y-68225000I267543J0D01*
G01*
G37*
G36*
G01*
X136842543Y-65250000D02*
X138157457Y-65250000D01*
G75*
G02*
X138425000Y-65517543I0J-267543D01*
G01*
X138425000Y-66507457D01*
G75*
G02*
X138157457Y-66775000I-267543J0D01*
G01*
X136842543Y-66775000D01*
G75*
G02*
X136575000Y-66507457I0J267543D01*
G01*
X136575000Y-65517543D01*
G75*
G02*
X136842543Y-65250000I267543J0D01*
G01*
G37*
%TD*%
%TO.C,C8*%
G36*
G01*
X141092543Y-68225000D02*
X142407457Y-68225000D01*
G75*
G02*
X142675000Y-68492543I0J-267543D01*
G01*
X142675000Y-69482457D01*
G75*
G02*
X142407457Y-69750000I-267543J0D01*
G01*
X141092543Y-69750000D01*
G75*
G02*
X140825000Y-69482457I0J267543D01*
G01*
X140825000Y-68492543D01*
G75*
G02*
X141092543Y-68225000I267543J0D01*
G01*
G37*
G36*
G01*
X141092543Y-65250000D02*
X142407457Y-65250000D01*
G75*
G02*
X142675000Y-65517543I0J-267543D01*
G01*
X142675000Y-66507457D01*
G75*
G02*
X142407457Y-66775000I-267543J0D01*
G01*
X141092543Y-66775000D01*
G75*
G02*
X140825000Y-66507457I0J267543D01*
G01*
X140825000Y-65517543D01*
G75*
G02*
X141092543Y-65250000I267543J0D01*
G01*
G37*
%TD*%
%TO.C,C7*%
G36*
G01*
X120975000Y-74819720D02*
X120975000Y-73504806D01*
G75*
G02*
X121242543Y-73237263I267543J0D01*
G01*
X122232457Y-73237263D01*
G75*
G02*
X122500000Y-73504806I0J-267543D01*
G01*
X122500000Y-74819720D01*
G75*
G02*
X122232457Y-75087263I-267543J0D01*
G01*
X121242543Y-75087263D01*
G75*
G02*
X120975000Y-74819720I0J267543D01*
G01*
G37*
G36*
G01*
X118000000Y-74819720D02*
X118000000Y-73504806D01*
G75*
G02*
X118267543Y-73237263I267543J0D01*
G01*
X119257457Y-73237263D01*
G75*
G02*
X119525000Y-73504806I0J-267543D01*
G01*
X119525000Y-74819720D01*
G75*
G02*
X119257457Y-75087263I-267543J0D01*
G01*
X118267543Y-75087263D01*
G75*
G02*
X118000000Y-74819720I0J267543D01*
G01*
G37*
%TD*%
%TO.C,C6*%
G36*
G01*
X114657457Y-69025000D02*
X113342543Y-69025000D01*
G75*
G02*
X113075000Y-68757457I0J267543D01*
G01*
X113075000Y-67767543D01*
G75*
G02*
X113342543Y-67500000I267543J0D01*
G01*
X114657457Y-67500000D01*
G75*
G02*
X114925000Y-67767543I0J-267543D01*
G01*
X114925000Y-68757457D01*
G75*
G02*
X114657457Y-69025000I-267543J0D01*
G01*
G37*
G36*
G01*
X114657457Y-72000000D02*
X113342543Y-72000000D01*
G75*
G02*
X113075000Y-71732457I0J267543D01*
G01*
X113075000Y-70742543D01*
G75*
G02*
X113342543Y-70475000I267543J0D01*
G01*
X114657457Y-70475000D01*
G75*
G02*
X114925000Y-70742543I0J-267543D01*
G01*
X114925000Y-71732457D01*
G75*
G02*
X114657457Y-72000000I-267543J0D01*
G01*
G37*
%TD*%
%TO.C,C5*%
G36*
G01*
X111225000Y-75157457D02*
X111225000Y-73842543D01*
G75*
G02*
X111492543Y-73575000I267543J0D01*
G01*
X112482457Y-73575000D01*
G75*
G02*
X112750000Y-73842543I0J-267543D01*
G01*
X112750000Y-75157457D01*
G75*
G02*
X112482457Y-75425000I-267543J0D01*
G01*
X111492543Y-75425000D01*
G75*
G02*
X111225000Y-75157457I0J267543D01*
G01*
G37*
G36*
G01*
X108250000Y-75157457D02*
X108250000Y-73842543D01*
G75*
G02*
X108517543Y-73575000I267543J0D01*
G01*
X109507457Y-73575000D01*
G75*
G02*
X109775000Y-73842543I0J-267543D01*
G01*
X109775000Y-75157457D01*
G75*
G02*
X109507457Y-75425000I-267543J0D01*
G01*
X108517543Y-75425000D01*
G75*
G02*
X108250000Y-75157457I0J267543D01*
G01*
G37*
%TD*%
%TO.C,C4*%
G36*
G01*
X120975000Y-88657457D02*
X120975000Y-87342543D01*
G75*
G02*
X121242543Y-87075000I267543J0D01*
G01*
X122232457Y-87075000D01*
G75*
G02*
X122500000Y-87342543I0J-267543D01*
G01*
X122500000Y-88657457D01*
G75*
G02*
X122232457Y-88925000I-267543J0D01*
G01*
X121242543Y-88925000D01*
G75*
G02*
X120975000Y-88657457I0J267543D01*
G01*
G37*
G36*
G01*
X118000000Y-88657457D02*
X118000000Y-87342543D01*
G75*
G02*
X118267543Y-87075000I267543J0D01*
G01*
X119257457Y-87075000D01*
G75*
G02*
X119525000Y-87342543I0J-267543D01*
G01*
X119525000Y-88657457D01*
G75*
G02*
X119257457Y-88925000I-267543J0D01*
G01*
X118267543Y-88925000D01*
G75*
G02*
X118000000Y-88657457I0J267543D01*
G01*
G37*
%TD*%
%TO.C,C3*%
G36*
G01*
X97557562Y-93566980D02*
X97557562Y-92252066D01*
G75*
G02*
X97825105Y-91984523I267543J0D01*
G01*
X98815019Y-91984523D01*
G75*
G02*
X99082562Y-92252066I0J-267543D01*
G01*
X99082562Y-93566980D01*
G75*
G02*
X98815019Y-93834523I-267543J0D01*
G01*
X97825105Y-93834523D01*
G75*
G02*
X97557562Y-93566980I0J267543D01*
G01*
G37*
G36*
G01*
X94582562Y-93566980D02*
X94582562Y-92252066D01*
G75*
G02*
X94850105Y-91984523I267543J0D01*
G01*
X95840019Y-91984523D01*
G75*
G02*
X96107562Y-92252066I0J-267543D01*
G01*
X96107562Y-93566980D01*
G75*
G02*
X95840019Y-93834523I-267543J0D01*
G01*
X94850105Y-93834523D01*
G75*
G02*
X94582562Y-93566980I0J267543D01*
G01*
G37*
%TD*%
%TO.C,C2*%
G36*
G01*
X90092543Y-83975000D02*
X91407457Y-83975000D01*
G75*
G02*
X91675000Y-84242543I0J-267543D01*
G01*
X91675000Y-85232457D01*
G75*
G02*
X91407457Y-85500000I-267543J0D01*
G01*
X90092543Y-85500000D01*
G75*
G02*
X89825000Y-85232457I0J267543D01*
G01*
X89825000Y-84242543D01*
G75*
G02*
X90092543Y-83975000I267543J0D01*
G01*
G37*
G36*
G01*
X90092543Y-81000000D02*
X91407457Y-81000000D01*
G75*
G02*
X91675000Y-81267543I0J-267543D01*
G01*
X91675000Y-82257457D01*
G75*
G02*
X91407457Y-82525000I-267543J0D01*
G01*
X90092543Y-82525000D01*
G75*
G02*
X89825000Y-82257457I0J267543D01*
G01*
X89825000Y-81267543D01*
G75*
G02*
X90092543Y-81000000I267543J0D01*
G01*
G37*
%TD*%
D16*
%TO.C,C1*%
X97450000Y-99500000D03*
G36*
G01*
X96500000Y-105400000D02*
X96500000Y-103600000D01*
G75*
G02*
X96550000Y-103550000I50000J0D01*
G01*
X98350000Y-103550000D01*
G75*
G02*
X98400000Y-103600000I0J-50000D01*
G01*
X98400000Y-105400000D01*
G75*
G02*
X98350000Y-105450000I-50000J0D01*
G01*
X96550000Y-105450000D01*
G75*
G02*
X96500000Y-105400000I0J50000D01*
G01*
G37*
%TD*%
D18*
%TO.C,A1*%
X164560000Y-72260000D03*
X164560000Y-87500000D03*
X129000000Y-72260000D03*
X162020000Y-87500000D03*
X131540000Y-72260000D03*
X159480000Y-87500000D03*
X134080000Y-72260000D03*
X156940000Y-87500000D03*
X136620000Y-72260000D03*
X154400000Y-87500000D03*
X139160000Y-72260000D03*
X151860000Y-87500000D03*
X141700000Y-72260000D03*
X149320000Y-87500000D03*
X144240000Y-72260000D03*
X146780000Y-87500000D03*
X146780000Y-72260000D03*
X144240000Y-87500000D03*
X149320000Y-72260000D03*
X141700000Y-87500000D03*
X151860000Y-72260000D03*
X139160000Y-87500000D03*
X154400000Y-72260000D03*
X136620000Y-87500000D03*
X156940000Y-72260000D03*
X134080000Y-87500000D03*
X159480000Y-72260000D03*
X131540000Y-87500000D03*
X162020000Y-72260000D03*
G36*
G01*
X129800000Y-88350000D02*
X128200000Y-88350000D01*
G75*
G02*
X128150000Y-88300000I0J50000D01*
G01*
X128150000Y-86700000D01*
G75*
G02*
X128200000Y-86650000I50000J0D01*
G01*
X129800000Y-86650000D01*
G75*
G02*
X129850000Y-86700000I0J-50000D01*
G01*
X129850000Y-88300000D01*
G75*
G02*
X129800000Y-88350000I-50000J0D01*
G01*
G37*
%TD*%
M02*
