%TF.GenerationSoftware,KiCad,Pcbnew,(5.99.0-1296-g952e7a5fb)*%
%TF.CreationDate,2020-06-12T12:12:59+03:00*%
%TF.ProjectId,TeemoWB,5465656d-6f57-4422-9e6b-696361645f70,1.0*%
%TF.SameCoordinates,Original*%
%TF.FileFunction,Soldermask,Bot*%
%TF.FilePolarity,Negative*%
%FSLAX46Y46*%
G04 Gerber Fmt 4.6, Leading zero omitted, Abs format (unit mm)*
G04 Created by KiCad (PCBNEW (5.99.0-1296-g952e7a5fb)) date 2020-06-12 12:12:59*
%MOMM*%
%LPD*%
G01*
G04 APERTURE LIST*
%ADD10C,3.300000*%
%ADD11O,1.600000X2.300000*%
%ADD12O,1.800000X1.800000*%
%ADD13C,2.100000*%
%ADD14C,2.700000*%
%ADD15C,1.900000*%
%ADD16O,2.300000X2.300000*%
%ADD17O,1.700000X1.700000*%
G04 APERTURE END LIST*
D10*
%TO.C,REF\u002A\u002A*%
X168000000Y-105750000D03*
%TD*%
%TO.C,REF\u002A\u002A*%
X168000000Y-63250000D03*
%TD*%
D11*
%TO.C,D_LCD1*%
X131850000Y-64000000D03*
X129310000Y-64000000D03*
X126770000Y-64000000D03*
X124230000Y-64000000D03*
X121690000Y-64000000D03*
X119150000Y-64000000D03*
X116610000Y-64000000D03*
X114070000Y-64000000D03*
X111530000Y-64000000D03*
X108990000Y-64000000D03*
X106450000Y-64000000D03*
X103910000Y-64000000D03*
X101370000Y-64000000D03*
X98830000Y-64000000D03*
X96290000Y-64000000D03*
G36*
G01*
X92950000Y-65100000D02*
X92950000Y-62900000D01*
G75*
G02*
X93000000Y-62850000I50000J0D01*
G01*
X94500000Y-62850000D01*
G75*
G02*
X94550000Y-62900000I0J-50000D01*
G01*
X94550000Y-65100000D01*
G75*
G02*
X94500000Y-65150000I-50000J0D01*
G01*
X93000000Y-65150000D01*
G75*
G02*
X92950000Y-65100000I0J50000D01*
G01*
G37*
%TD*%
D12*
%TO.C,J3*%
X167500000Y-91170000D03*
X167500000Y-93710000D03*
G36*
G01*
X168400000Y-95400000D02*
X168400000Y-97100000D01*
G75*
G02*
X168350000Y-97150000I-50000J0D01*
G01*
X166650000Y-97150000D01*
G75*
G02*
X166600000Y-97100000I0J50000D01*
G01*
X166600000Y-95400000D01*
G75*
G02*
X166650000Y-95350000I50000J0D01*
G01*
X168350000Y-95350000D01*
G75*
G02*
X168400000Y-95400000I0J-50000D01*
G01*
G37*
%TD*%
D13*
%TO.C,SW1*%
X158000000Y-98750000D03*
X162500000Y-98750000D03*
X158000000Y-105250000D03*
X162500000Y-105250000D03*
%TD*%
D14*
%TO.C,J5*%
X152160000Y-102750000D03*
X147080000Y-102750000D03*
G36*
G01*
X140650000Y-104050000D02*
X140650000Y-101450000D01*
G75*
G02*
X140700000Y-101400000I50000J0D01*
G01*
X143300000Y-101400000D01*
G75*
G02*
X143350000Y-101450000I0J-50000D01*
G01*
X143350000Y-104050000D01*
G75*
G02*
X143300000Y-104100000I-50000J0D01*
G01*
X140700000Y-104100000D01*
G75*
G02*
X140650000Y-104050000I0J50000D01*
G01*
G37*
%TD*%
%TO.C,J4*%
X134580000Y-102750000D03*
G36*
G01*
X128150000Y-104050000D02*
X128150000Y-101450000D01*
G75*
G02*
X128200000Y-101400000I50000J0D01*
G01*
X130800000Y-101400000D01*
G75*
G02*
X130850000Y-101450000I0J-50000D01*
G01*
X130850000Y-104050000D01*
G75*
G02*
X130800000Y-104100000I-50000J0D01*
G01*
X128200000Y-104100000D01*
G75*
G02*
X128150000Y-104050000I0J50000D01*
G01*
G37*
%TD*%
%TO.C,J2*%
X76675000Y-89450000D03*
X76675000Y-84370000D03*
X76675000Y-79290000D03*
X76675000Y-74210000D03*
X76675000Y-69130000D03*
G36*
G01*
X75375000Y-62700000D02*
X77975000Y-62700000D01*
G75*
G02*
X78025000Y-62750000I0J-50000D01*
G01*
X78025000Y-65350000D01*
G75*
G02*
X77975000Y-65400000I-50000J0D01*
G01*
X75375000Y-65400000D01*
G75*
G02*
X75325000Y-65350000I0J50000D01*
G01*
X75325000Y-62750000D01*
G75*
G02*
X75375000Y-62700000I50000J0D01*
G01*
G37*
%TD*%
%TO.C,J1*%
X76650000Y-101255000D03*
G36*
G01*
X75350000Y-94825000D02*
X77950000Y-94825000D01*
G75*
G02*
X78000000Y-94875000I0J-50000D01*
G01*
X78000000Y-97475000D01*
G75*
G02*
X77950000Y-97525000I-50000J0D01*
G01*
X75350000Y-97525000D01*
G75*
G02*
X75300000Y-97475000I0J50000D01*
G01*
X75300000Y-94875000D01*
G75*
G02*
X75350000Y-94825000I50000J0D01*
G01*
G37*
%TD*%
D15*
%TO.C,D4*%
X87290000Y-105000000D03*
G36*
G01*
X83800000Y-105900000D02*
X83800000Y-104100000D01*
G75*
G02*
X83850000Y-104050000I50000J0D01*
G01*
X85650000Y-104050000D01*
G75*
G02*
X85700000Y-104100000I0J-50000D01*
G01*
X85700000Y-105900000D01*
G75*
G02*
X85650000Y-105950000I-50000J0D01*
G01*
X83850000Y-105950000D01*
G75*
G02*
X83800000Y-105900000I0J50000D01*
G01*
G37*
%TD*%
%TO.C,D3*%
X94040000Y-105000000D03*
G36*
G01*
X90550000Y-105900000D02*
X90550000Y-104100000D01*
G75*
G02*
X90600000Y-104050000I50000J0D01*
G01*
X92400000Y-104050000D01*
G75*
G02*
X92450000Y-104100000I0J-50000D01*
G01*
X92450000Y-105900000D01*
G75*
G02*
X92400000Y-105950000I-50000J0D01*
G01*
X90600000Y-105950000D01*
G75*
G02*
X90550000Y-105900000I0J50000D01*
G01*
G37*
%TD*%
D16*
%TO.C,D2*%
X94160047Y-96000000D03*
G36*
G01*
X85390047Y-97100000D02*
X85390047Y-94900000D01*
G75*
G02*
X85440047Y-94850000I50000J0D01*
G01*
X87640047Y-94850000D01*
G75*
G02*
X87690047Y-94900000I0J-50000D01*
G01*
X87690047Y-97100000D01*
G75*
G02*
X87640047Y-97150000I-50000J0D01*
G01*
X85440047Y-97150000D01*
G75*
G02*
X85390047Y-97100000I0J50000D01*
G01*
G37*
%TD*%
%TO.C,D1*%
X86187349Y-100074710D03*
G36*
G01*
X94957349Y-98974710D02*
X94957349Y-101174710D01*
G75*
G02*
X94907349Y-101224710I-50000J0D01*
G01*
X92707349Y-101224710D01*
G75*
G02*
X92657349Y-101174710I0J50000D01*
G01*
X92657349Y-98974710D01*
G75*
G02*
X92707349Y-98924710I50000J0D01*
G01*
X94907349Y-98924710D01*
G75*
G02*
X94957349Y-98974710I0J-50000D01*
G01*
G37*
%TD*%
D15*
%TO.C,C1*%
X97450000Y-99500000D03*
G36*
G01*
X96500000Y-105400000D02*
X96500000Y-103600000D01*
G75*
G02*
X96550000Y-103550000I50000J0D01*
G01*
X98350000Y-103550000D01*
G75*
G02*
X98400000Y-103600000I0J-50000D01*
G01*
X98400000Y-105400000D01*
G75*
G02*
X98350000Y-105450000I-50000J0D01*
G01*
X96550000Y-105450000D01*
G75*
G02*
X96500000Y-105400000I0J50000D01*
G01*
G37*
%TD*%
D17*
%TO.C,A1*%
X164560000Y-72260000D03*
X164560000Y-87500000D03*
X129000000Y-72260000D03*
X162020000Y-87500000D03*
X131540000Y-72260000D03*
X159480000Y-87500000D03*
X134080000Y-72260000D03*
X156940000Y-87500000D03*
X136620000Y-72260000D03*
X154400000Y-87500000D03*
X139160000Y-72260000D03*
X151860000Y-87500000D03*
X141700000Y-72260000D03*
X149320000Y-87500000D03*
X144240000Y-72260000D03*
X146780000Y-87500000D03*
X146780000Y-72260000D03*
X144240000Y-87500000D03*
X149320000Y-72260000D03*
X141700000Y-87500000D03*
X151860000Y-72260000D03*
X139160000Y-87500000D03*
X154400000Y-72260000D03*
X136620000Y-87500000D03*
X156940000Y-72260000D03*
X134080000Y-87500000D03*
X159480000Y-72260000D03*
X131540000Y-87500000D03*
X162020000Y-72260000D03*
G36*
G01*
X129800000Y-88350000D02*
X128200000Y-88350000D01*
G75*
G02*
X128150000Y-88300000I0J50000D01*
G01*
X128150000Y-86700000D01*
G75*
G02*
X128200000Y-86650000I50000J0D01*
G01*
X129800000Y-86650000D01*
G75*
G02*
X129850000Y-86700000I0J-50000D01*
G01*
X129850000Y-88300000D01*
G75*
G02*
X129800000Y-88350000I-50000J0D01*
G01*
G37*
%TD*%
M02*
